<svg xmlns="http://www.w3.org/2000/svg" viewBox="0 0 32 32">
  <path d="M16 0C7.164 0 0 7.164 0 16s7.164 16 16 16 16-7.164 16-16S24.836 0 16 0zm7.486 10.577l-1.194 5.955c-.136.677-.545 1.535-1.223 1.535-.678 0-1.086-.858-1.223-1.535l-1.194-5.955c-.091-.455-.364-.682-.819-.682s-.728.227-.819.682l-1.194 5.955c-.136.677-.545 1.535-1.223 1.535-.678 0-1.086-.858-1.223-1.535l-1.194-5.955c-.091-.455-.364-.682-.819-.682s-.728.227-.819.682l-1.194 5.955c-.136.677-.545 1.535-1.223 1.535-.678 0-1.086-.858-1.223-1.535L6.514 10.577c-.182-.909.273-1.839 1.136-2.321.864-.482 1.932-.428 2.741.137l2.609 1.827 2.609-1.827c.809-.565 1.877-.619 2.741-.137.863.482 1.318 1.412 1.136 2.321z" fill="currentColor"/>
</svg>